<svg enable-background="new 0 0 32 32" height="512" viewBox="0 0 32 32" width="512" xmlns="http://www.w3.org/2000/svg"><g id="BG" fill="#ffe6e2"><path d="m26 32h-20c-3.314 0-6-2.686-6-6v-20c0-3.314 2.686-6 6-6h20c3.314 0 6 2.686 6 6v20c0 3.314-2.686 6-6 6z"/><path d="m26 32h-20c-3.314 0-6-2.686-6-6v-20c0-3.314 2.686-6 6-6h20c3.314 0 6 2.686 6 6v20c0 3.314-2.686 6-6 6z"/></g><g id="bold"><g fill="#fd907e"><path d="m22.75 23h-2c-.276 0-.5-.224-.5-.5s.224-.5.5-.5h2c.276 0 .5.224.5.5s-.224.5-.5.5z"/><path d="m18.75 23h-2c-.276 0-.5-.224-.5-.5s.224-.5.5-.5h2c.276 0 .5.224.5.5s-.224.5-.5.5z"/><path d="m14.75 23h-2c-.276 0-.5-.224-.5-.5s.224-.5.5-.5h2c.276 0 .5.224.5.5s-.224.5-.5.5z"/><path d="m10.75 23h-2c-.276 0-.5-.224-.5-.5s.224-.5.5-.5h2c.276 0 .5.224.5.5s-.224.5-.5.5z"/></g><path d="m16.943 14.357 1.362-1.362c.26-.26.26-.682 0-.943s-.682-.26-.943 0l-1.362 1.362-1.362-1.362c-.26-.26-.682-.26-.943 0s-.26.682 0 .943l1.362 1.362-1.362 1.362c-.26.26-.26.682 0 .943.13.13.301.195.471.195s.341-.065.471-.195l1.363-1.362 1.362 1.362c.13.13.301.195.471.195.171 0 .341-.065.471-.195.26-.26.26-.682 0-.943z" fill="#fc573b"/></g></svg>