<svg id="Capa_1" enable-background="new 0 0 512 512" height="512" viewBox="0 0 512 512" width="512" xmlns="http://www.w3.org/2000/svg"><g><ellipse cx="256" cy="426.557" fill="#b3e59f" rx="183.612" ry="85.443"/><path d="m256 341.114c-5.205 0-10.357.107-15.453.304 94.173 3.652 168.159 40.372 168.159 85.139s-73.986 81.487-168.159 85.139c5.096.198 10.247.304 15.453.304 101.406 0 183.612-38.254 183.612-85.443s-82.206-85.443-183.612-85.443z" fill="#95d6a4"/><path d="m430.616 174.616c0 87.132-142.543 247.659-170.052 277.828-2.45 2.687-6.677 2.687-9.127 0-27.51-30.169-170.053-190.696-170.053-277.828 0-96.438 78.178-174.616 174.616-174.616s174.616 78.178 174.616 174.616z" fill="#e5979d"/><path d="m256 0c-5.209 0-10.36.241-15.453.688 89.198 7.824 159.163 82.699 159.163 173.928 0 78.764-116.47 217.492-159.163 265.699 4.536 5.122 8.247 9.232 10.889 12.129 2.45 2.687 6.677 2.687 9.127 0 27.509-30.169 170.052-190.696 170.052-277.828.001-96.438-78.177-174.616-174.615-174.616z" fill="#e17f85"/><g><circle cx="256" cy="149.966" fill="#fff" r="91.171"/><path d="m256 58.795c-5.267 0-10.428.455-15.453 1.316 42.937 7.362 75.718 44.85 75.718 89.855s-32.781 82.493-75.718 89.855c5.025.861 10.186 1.316 15.453 1.316 50.272 0 91.171-40.899 91.171-91.171s-40.899-91.171-91.171-91.171z" fill="#edebed"/><path d="m310.084 134.513h-35.541c-1.707 0-3.091-1.384-3.091-3.091v-35.541c0-3.414-2.767-6.181-6.181-6.181h-18.543c-3.414 0-6.181 2.767-6.181 6.181v35.541c0 1.707-1.384 3.091-3.091 3.091h-35.541c-3.414 0-6.181 2.767-6.181 6.181v18.543c0 3.414 2.767 6.181 6.181 6.181h35.541c1.707 0 3.091 1.384 3.091 3.091v35.541c0 3.414 2.767 6.181 6.181 6.181h18.543c3.414 0 6.181-2.767 6.181-6.181v-35.541c0-1.707 1.384-3.091 3.091-3.091h35.541c3.414 0 6.181-2.767 6.181-6.181v-18.543c.001-3.414-2.767-6.181-6.181-6.181z" fill="#e5979d"/></g></g></svg>